<mxfile host="app.diagrams.net" modified="2022-08-13T10:01:13.498Z" agent="5.0 (Macintosh; Intel Mac OS X 10_15_7) AppleWebKit/537.36 (KHTML, like Gecko) Chrome/104.0.5112.81 Safari/537.36" etag="LEQ03SyRf_G8kG9vDEiY" version="20.2.3" type="github">
  <diagram id="vB7s2A0cUSfk2eqcDJzI" name="Page-1">
    <mxGraphModel dx="1234" dy="766" grid="1" gridSize="10" guides="1" tooltips="1" connect="1" arrows="1" fold="1" page="1" pageScale="1" pageWidth="827" pageHeight="1169" math="0" shadow="0">
      <root>
        <mxCell id="0" />
        <mxCell id="1" parent="0" />
        <mxCell id="OR2OixxplwTkYEpv_lp7-1" value="" style="shape=hexagon;perimeter=hexagonPerimeter2;whiteSpace=wrap;html=1;fixedSize=1;fillColor=#dae8fc;strokeColor=#6c8ebf;gradientDirection=east;gradientColor=#0000FF;" vertex="1" parent="1">
          <mxGeometry x="80" y="210" width="690" height="80" as="geometry" />
        </mxCell>
        <mxCell id="OR2OixxplwTkYEpv_lp7-2" value="IaaS" style="text;html=1;strokeColor=none;fillColor=none;align=center;verticalAlign=middle;whiteSpace=wrap;rounded=0;" vertex="1" parent="1">
          <mxGeometry x="80" y="290" width="60" height="30" as="geometry" />
        </mxCell>
        <mxCell id="OR2OixxplwTkYEpv_lp7-3" value="SaaS" style="text;html=1;strokeColor=none;fillColor=none;align=center;verticalAlign=middle;whiteSpace=wrap;rounded=0;" vertex="1" parent="1">
          <mxGeometry x="720" y="290" width="60" height="30" as="geometry" />
        </mxCell>
        <mxCell id="OR2OixxplwTkYEpv_lp7-4" value="CaaS" style="text;html=1;strokeColor=none;fillColor=none;align=center;verticalAlign=middle;whiteSpace=wrap;rounded=0;" vertex="1" parent="1">
          <mxGeometry x="240" y="290" width="60" height="30" as="geometry" />
        </mxCell>
        <mxCell id="OR2OixxplwTkYEpv_lp7-5" value="FaaS" style="text;html=1;strokeColor=none;fillColor=none;align=center;verticalAlign=middle;whiteSpace=wrap;rounded=0;" vertex="1" parent="1">
          <mxGeometry x="560" y="290" width="60" height="30" as="geometry" />
        </mxCell>
        <mxCell id="OR2OixxplwTkYEpv_lp7-6" value="PaaS" style="text;html=1;strokeColor=none;fillColor=none;align=center;verticalAlign=middle;whiteSpace=wrap;rounded=0;" vertex="1" parent="1">
          <mxGeometry x="384" y="290" width="60" height="30" as="geometry" />
        </mxCell>
        <mxCell id="OR2OixxplwTkYEpv_lp7-7" value="" style="endArrow=classic;html=1;rounded=0;strokeWidth=3;" edge="1" parent="1">
          <mxGeometry width="50" height="50" relative="1" as="geometry">
            <mxPoint x="410" y="200" as="sourcePoint" />
            <mxPoint x="750" y="200" as="targetPoint" />
          </mxGeometry>
        </mxCell>
        <mxCell id="OR2OixxplwTkYEpv_lp7-9" value="Cost" style="edgeLabel;html=1;align=center;verticalAlign=middle;resizable=0;points=[];" vertex="1" connectable="0" parent="OR2OixxplwTkYEpv_lp7-7">
          <mxGeometry x="-0.0788" y="3" relative="1" as="geometry">
            <mxPoint x="143" y="-7" as="offset" />
          </mxGeometry>
        </mxCell>
        <mxCell id="OR2OixxplwTkYEpv_lp7-8" value="" style="endArrow=classic;html=1;rounded=0;strokeWidth=3;" edge="1" parent="1">
          <mxGeometry width="50" height="50" relative="1" as="geometry">
            <mxPoint x="410" y="200" as="sourcePoint" />
            <mxPoint x="100" y="200" as="targetPoint" />
          </mxGeometry>
        </mxCell>
        <mxCell id="OR2OixxplwTkYEpv_lp7-10" value="Maintenance" style="edgeLabel;html=1;align=center;verticalAlign=middle;resizable=0;points=[];" vertex="1" connectable="0" parent="OR2OixxplwTkYEpv_lp7-8">
          <mxGeometry x="-0.1484" y="-2" relative="1" as="geometry">
            <mxPoint x="-118" y="-8" as="offset" />
          </mxGeometry>
        </mxCell>
      </root>
    </mxGraphModel>
  </diagram>
</mxfile>
